<?xml version="1.0" encoding="utf-8"?>
<!-- Generator: Adobe Illustrator 19.1.0, SVG Export Plug-In . SVG Version: 6.00 Build 0)  -->
<svg version="1.1" id="Layer_1" xmlns="http://www.w3.org/2000/svg" xmlns:xlink="http://www.w3.org/1999/xlink" x="0px" y="0px"
	 viewBox="0 0 134 67" style="enable-background:new 0 0 134 67;" xml:space="preserve">
<style type="text/css">
	.st0{opacity:0.6;}
	.st1{fill:#010202;}
	.st2{fill:#FFFFFF;}
</style>
<g>
	<g>
		<g class="st0">
			<path class="st1" d="M39.8,47.2H28.9V22.3h-4v22.2c0,1.8-0.7,2.7-2.2,2.7H10.1v-8.3H14V22.3h-3.3V14h26.9c1.5,0,2.2,0.9,2.2,2.7
				V47.2z"/>
			<path class="st1" d="M67.3,43.2c0,1-0.3,1.9-1,2.7c-0.7,0.8-1.6,1.3-2.7,1.3H50.8v-8.1h5.6V22.3H45.7c-0.6,0-1.1-0.2-1.6-0.7
				s-0.7-1-0.7-1.6V6h11V14h10.7c1.4,0,2.1,0.9,2.1,2.7V43.2z"/>
			<path class="st1" d="M94.1,44.5c0,1.8-0.8,2.7-2.3,2.7H70.9v-8.3h12.2V22.3H70.9V14h20.9c1.5,0,2.3,0.9,2.3,2.7V44.5z"/>
			<path class="st1" d="M126.6,44.5c0,1.8-0.8,2.7-2.3,2.7h-12.6v-8.3h3.9V22.3h-3.3l-3.9,24.9h-11l4.5-24.9H98V14h26.1
				c1.7,0,2.5,1,2.5,3V44.5z"/>
		</g>
		<g>
			<g>
				<path class="st2" d="M38.8,46.2H27.9V21.3h-4v22.2c0,1.8-0.7,2.7-2.2,2.7H9.1v-8.3H13V21.3H9.7V13h26.9c1.5,0,2.2,0.9,2.2,2.7
					V46.2z"/>
				<path class="st2" d="M66.3,42.2c0,1-0.3,1.9-1,2.7c-0.7,0.8-1.6,1.3-2.7,1.3H49.8v-8.1h5.6V21.3H44.7c-0.6,0-1.1-0.2-1.6-0.7
					s-0.7-1-0.7-1.6V5h11V13h10.7c1.4,0,2.1,0.9,2.1,2.7V42.2z"/>
				<path class="st2" d="M93.1,43.5c0,1.8-0.8,2.7-2.3,2.7H69.9v-8.3h12.2V21.3H69.9V13h20.9c1.5,0,2.3,0.9,2.3,2.7V43.5z"/>
				<path class="st2" d="M125.6,43.5c0,1.8-0.8,2.7-2.3,2.7h-12.6v-8.3h3.9V21.3h-3.3l-3.9,24.9h-11l4.5-24.9H97V13h26.1
					c1.7,0,2.5,1,2.5,3V43.5z"/>
			</g>
		</g>
	</g>
	<g>
		<g class="st0">
			<path class="st1" d="M119.5,55.3h-15.8c-1.1,0-2-0.9-2-2V53c0-1.1,0.9-2,2-2h15.8c1.1,0,2,0.9,2,2v0.3
				C121.5,54.4,120.6,55.3,119.5,55.3z"/>
		</g>
		<g>
			<path class="st2" d="M118.5,54.3h-15.8c-1.1,0-2-0.9-2-2V52c0-1.1,0.9-2,2-2h15.8c1.1,0,2,0.9,2,2v0.3
				C120.5,53.4,119.6,54.3,118.5,54.3z"/>
		</g>
	</g>
	<g>
		<g class="st0">
			<circle class="st1" cx="75.8" cy="30.5" r="2.5"/>
		</g>
		<g>
			<circle class="st2" cx="74.8" cy="29.5" r="2.5"/>
		</g>
	</g>
	<g>
		<g class="st0">
			<circle class="st1" cx="64" cy="8.3" r="2.5"/>
		</g>
		<g>
			<circle class="st2" cx="63" cy="7.3" r="2.5"/>
		</g>
	</g>
	<g>
		<g>
			<g class="st0">
				<circle class="st1" cx="54.3" cy="52.6" r="2.5"/>
			</g>
			<g>
				<circle class="st2" cx="53.3" cy="51.6" r="2.5"/>
			</g>
		</g>
		<g>
			<g class="st0">
				<circle class="st1" cx="60.9" cy="52.6" r="2.5"/>
			</g>
			<g>
				<circle class="st2" cx="59.9" cy="51.6" r="2.5"/>
			</g>
		</g>
		<g>
			<g class="st0">
				<circle class="st1" cx="57.6" cy="58" r="2.5"/>
			</g>
			<g>
				<circle class="st2" cx="56.6" cy="57" r="2.5"/>
			</g>
		</g>
	</g>
</g>
</svg>
