<?xml version="1.0" encoding="utf-8"?>
<!-- Generator: Adobe Illustrator 19.1.0, SVG Export Plug-In . SVG Version: 6.00 Build 0)  -->
<svg version="1.1" id="Layer_1" xmlns="http://www.w3.org/2000/svg" xmlns:xlink="http://www.w3.org/1999/xlink" x="0px" y="0px"
	 viewBox="0 0 419 189" style="enable-background:new 0 0 419 189;" xml:space="preserve">
<style type="text/css">
	.st0{fill:#F1A62B;}
	.st1{opacity:0.1;fill:#010202;}
	.st2{fill:#8B5014;}
	.st3{fill:#633710;}
	.st4{fill:#8A5D33;}
	.st5{fill:#A4A59C;}
	.st6{fill:#A48063;}
	.st7{fill:#956E49;}
	.st8{fill:#797B71;}
	.st9{fill:#D3D0BC;}
	.st10{fill:#FFFFFF;}
	.st11{fill:#E6E7E9;}
	.st12{fill:#6E6F72;}
	.st13{fill:#2075BB;}
	.st14{fill:#1C62A3;}
	.st15{fill:#056938;}
	.st16{fill:#009245;}
	.st17{fill:url(#SVGID_1_);}
	.st18{fill:url(#SVGID_2_);}
	.st19{fill:#D90E15;}
	.st20{clip-path:url(#SVGID_4_);fill:#C11718;}
	.st21{fill:#060405;}
	.st22{fill:#3B3B3B;}
	.st23{opacity:0.3;fill:#010202;}
	.st24{opacity:0.6;}
	.st25{fill:#010202;}
</style>
<g>
	<g>
		<g>
			<path class="st0" d="M135.4,149.5c8.7,3,20.8-9.3,33.4-46.1c10.8-31.2,10.8-49.6,4.6-55.3c-0.8-0.7-1.6-1.2-2.6-1.6
				c-6.4-2.2-19-1.4-31.1,16.2c-0.3,0.4-0.6,0.9-0.9,1.3c-1.5,2.3-3,4.9-4.5,7.8c-0.2,0.4-0.5,0.9-0.7,1.4c-1.4,2.9-2.9,6.1-4.2,9.6
				c-0.2,0.5-0.4,0.9-0.5,1.4c-0.6,1.6-1.2,3.2-1.8,4.9c-0.4,1.2-0.8,2.3-1.1,3.5c-0.2,0.5-0.3,1-0.4,1.4c-1.1,3.4-1.9,6.6-2.6,9.7
				c-0.1,0.5-0.2,1-0.3,1.5c-0.7,3.2-1.1,6.1-1.4,8.8c-0.1,0.5-0.1,1-0.1,1.5c-0.7,8.4,0.2,15,2,20c0.4,1.3,0.9,2.5,1.5,3.5
				C127.6,145.2,131.9,148.3,135.4,149.5z"/>
			<path class="st1" d="M135.4,149.5c8.7,3,20.8-9.3,33.4-46.1l-41.7-14.4c-0.4,1.2-0.8,2.3-1.1,3.5c-0.2,0.5-0.3,1-0.4,1.4
				c-1.1,3.4-1.9,6.6-2.6,9.7c-0.1,0.5-0.2,1-0.3,1.5c-0.7,3.2-1.1,6.1-1.4,8.8c-0.1,0.5-0.1,1-0.1,1.5
				C119.2,138.1,128.9,147.3,135.4,149.5z"/>
			<path class="st1" d="M135.4,149.5c8.7,3,20.8-9.3,33.4-46.1c10.8-31.2,10.8-49.6,4.6-55.3c-0.8-0.7-1.6-1.2-2.6-1.6
				c5.3,6.9,0.6,27.2-4.4,41.6c-9.6,28-28.8,47.5-43.4,47.4c0.4,1.3,0.9,2.5,1.5,3.5C127.6,145.2,131.9,148.3,135.4,149.5z"/>
		</g>
		<g>
			<path class="st2" d="M94.1,59.3c0-3.7,0-8.5,0-8.5h-5.3h-5.3c0,0,0,4.8,0,8.5c0,9.3-8.3,24.9-8.3,37.7c0,8.3,0,53.3,0,53.3h13.6
				h13.6c0,0,0-45,0-53.3C102.4,84.2,94.1,68.6,94.1,59.3z"/>
			<g>
				<path class="st3" d="M102.4,97c0-12.8-8.3-28.4-8.3-37.7c0-3.7,0-8.5,0-8.5h-5.3v99.5h13.6C102.4,150.3,102.4,105.3,102.4,97z"
					/>
			</g>
			<g>
				<path class="st4" d="M75.2,97c0-12.8,8.3-28.4,8.3-37.7c0-3.7,0-8.5,0-8.5h5.3v99.5H75.2C75.2,150.3,75.2,105.3,75.2,97z"/>
			</g>
			<path class="st5" d="M94.8,47.5c0,0-1.4-1.2-6-1.2c-4.6,0-6,1.2-6,1.2v3.3h12V47.5z"/>
			<rect x="83.5" y="52.8" class="st6" width="10.6" height="2.3"/>
			<rect x="75.2" y="97" class="st7" width="27.1" height="1.5"/>
			<polygon class="st8" points="84.5,50.8 82.8,50.8 82.8,48.4 83.7,48.8 84.5,48.4 			"/>
			<polygon class="st8" points="87.1,50.8 85.4,50.8 85.4,48.4 86.2,48.8 87.1,48.4 			"/>
			<polygon class="st8" points="89.7,50.8 87.9,50.8 87.9,48.4 88.8,48.8 89.7,48.4 			"/>
			<polygon class="st8" points="92.2,50.8 90.5,50.8 90.5,48.4 91.4,48.8 92.2,48.4 			"/>
			<polygon class="st8" points="94.8,50.8 93.1,50.8 93.1,48.4 93.9,48.8 94.8,48.4 			"/>
			<path class="st9" d="M100,137.3c0,2.3-1.9,4.2-4.2,4.2H81.8c-2.3,0-4.2-1.9-4.2-4.2V113c0-2.3,2.3-5.8,11.2-5.8
				c8.9,0,11.2,3.5,11.2,5.8V137.3z"/>
			<g>
				<path class="st9" d="M96.2,70.3H81.4c-0.5,1.8-1.1,3.6-1.7,5.5c-0.6,1.8-1.1,3.6-1.7,5.4h21.4c-0.5-1.8-1.1-3.6-1.7-5.4
					C97.3,73.9,96.7,72.1,96.2,70.3z"/>
			</g>
			<path class="st3" d="M75.2,150.3c0,2,1.6,3.6,3.6,3.6h20c2,0,3.6-1.6,3.6-3.6H75.2z"/>
		</g>
		<g>
			<path class="st10" d="M135.8,72h-18c-1.3,0-2.5-1.1-2.5-2.5v-6.7c0-1.3,1.1-2.5,2.5-2.5h18c1.3,0,2.5,1.1,2.5,2.5v6.7
				C138.3,70.9,137.2,72,135.8,72z"/>
			<polygon class="st11" points="138.3,66.5 144.5,76.1 109.6,76.1 115.4,66.5 127.1,66.5 			"/>
			<ellipse class="st12" cx="127.1" cy="71.8" rx="4.5" ry="2.3"/>
			<rect x="109.6" y="76.1" class="st10" width="34.9" height="75.5"/>
			<path class="st13" d="M123.1,68.4v2.9h0c0.2,1.2,1.9,2.1,4,2.1c2.1,0,3.8-0.9,4-2.1h0v-2.9H123.1z"/>
			<ellipse class="st14" cx="127.1" cy="68.1" rx="4" ry="2.1"/>
		</g>
		<g>
			<path class="st15" d="M78.1,152c0,0-22.1-84.1-24.4-91C51.4,54,37.9,20.1,38.9,19.6c1-0.4,16.1,35.7,17.4,40.4
				c1.3,4.7,24.9,91,24.9,91L78.1,152z"/>
			<path class="st15" d="M77,149.3c0,0-21.1-69.9-26.1-84.6S25.5,15.2,26.3,13.4s24.2,40,26.1,44.8c1.9,4.8,28.8,89.6,28.8,89.6
				L77,149.3z"/>
			<path class="st16" d="M74.9,149.5c0,0-22.1-84.1-24.4-91S34.4,16.6,34.7,15.3s17.1,37.6,18.5,42.3c1.3,4.7,24.9,91,24.9,91
				L74.9,149.5z"/>
			<linearGradient id="SVGID_1_" gradientUnits="userSpaceOnUse" x1="65.0241" y1="97.7708" x2="75.1313" y2="136.8114">
				<stop  offset="0" style="stop-color:#009245"/>
				<stop  offset="0.2938" style="stop-color:#0D9346"/>
				<stop  offset="0.4344" style="stop-color:#25964B"/>
				<stop  offset="0.5424" style="stop-color:#3D9B52"/>
				<stop  offset="0.6339" style="stop-color:#56A25F"/>
				<stop  offset="0.7148" style="stop-color:#71AC72"/>
				<stop  offset="0.7884" style="stop-color:#8FBA8A"/>
				<stop  offset="0.8564" style="stop-color:#AECBA8"/>
				<stop  offset="0.9199" style="stop-color:#D0E0CA"/>
				<stop  offset="0.9777" style="stop-color:#F1F6F0"/>
				<stop  offset="1" style="stop-color:#FFFFFF"/>
			</linearGradient>
			<path class="st17" d="M77,153.1c0,0-22.4-94.6-24.4-101.6S39,9.5,39.9,9.5c0.9,0,14.3,36.5,15.4,41.3s24.9,101.6,24.9,101.6
				L77,153.1z"/>
			<linearGradient id="SVGID_2_" gradientUnits="userSpaceOnUse" x1="7.2896" y1="104.6149" x2="81.2461" y2="104.6149">
				<stop  offset="0" style="stop-color:#009245"/>
				<stop  offset="0.2938" style="stop-color:#0D9346"/>
				<stop  offset="0.4344" style="stop-color:#25964B"/>
				<stop  offset="0.5424" style="stop-color:#3D9B52"/>
				<stop  offset="0.6339" style="stop-color:#56A25F"/>
				<stop  offset="0.7148" style="stop-color:#71AC72"/>
				<stop  offset="0.7884" style="stop-color:#8FBA8A"/>
				<stop  offset="0.8564" style="stop-color:#AECBA8"/>
				<stop  offset="0.9199" style="stop-color:#D0E0CA"/>
				<stop  offset="0.9777" style="stop-color:#F1F6F0"/>
				<stop  offset="1" style="stop-color:#FFFFFF"/>
			</linearGradient>
			<path class="st18" d="M81.2,152.4l-32.9-97c0,0-41.4,23.1-41,23.9c0.8,1.8,39-18.2,39-18.2l31.1,92.8L81.2,152.4z"/>
		</g>
		<g>
			<g>
				<path class="st19" d="M47.9,90.9c0,1.4,1.1,2.5,2.5,2.5h0.3c1.4,0,2.7,1.1,3,2.5L64,154.2c0.2,1.4,1.6,2.5,3,2.5h91.8
					c1.4,0,2.7-1.1,3-2.5l10.3-58.3c0.2-1.4,1.6-2.5,3-2.5h0.3c1.4,0,2.5-1.1,2.5-2.5v-4.4c0-1.4-1.1-2.5-2.5-2.5H50.4
					c-1.4,0-2.5,1.1-2.5,2.5V90.9z M78,149.6h-3.7c-1.4,0-2.5-1.1-2.5-2.5v-17.3c0-1.4,1.1-2.5,2.5-2.5H78c1.4,0,2.5,1.1,2.5,2.5
					v17.3C80.5,148.5,79.4,149.6,78,149.6z M78,118.1h-3.7c-1.4,0-2.5-1.1-2.5-2.5V98.3c0-1.4,1.1-2.5,2.5-2.5H78
					c1.4,0,2.5,1.1,2.5,2.5v17.3C80.5,117,79.4,118.1,78,118.1z M95.4,149.6h-3.7c-1.4,0-2.5-1.1-2.5-2.5v-17.3
					c0-1.4,1.1-2.5,2.5-2.5h3.7c1.4,0,2.5,1.1,2.5,2.5v17.3C97.9,148.5,96.8,149.6,95.4,149.6z M95.4,118.1h-3.7
					c-1.4,0-2.5-1.1-2.5-2.5V98.3c0-1.4,1.1-2.5,2.5-2.5h3.7c1.4,0,2.5,1.1,2.5,2.5v17.3C97.9,117,96.8,118.1,95.4,118.1z
					 M114.8,149.6H111c-1.4,0-2.5-1.1-2.5-2.5v-17.3c0-1.4,1.1-2.5,2.5-2.5h3.8c1.4,0,2.5,1.1,2.5,2.5v17.3
					C117.3,148.5,116.2,149.6,114.8,149.6z M132.8,149.6h-3.7c-1.4,0-2.5-1.1-2.5-2.5v-17.3c0-1.4,1.1-2.5,2.5-2.5h3.7
					c1.4,0,2.5,1.1,2.5,2.5v17.3C135.4,148.5,134.2,149.6,132.8,149.6z M132.8,118.1h-3.7c-1.4,0-2.5-1.1-2.5-2.5V98.3
					c0-1.4,1.1-2.5,2.5-2.5h3.7c1.4,0,2.5,1.1,2.5,2.5v17.3C135.4,117,134.2,118.1,132.8,118.1z M151.6,149.6h-3.8
					c-1.4,0-2.5-1.1-2.5-2.5v-17.3c0-1.4,1.1-2.5,2.5-2.5h3.8c1.4,0,2.5,1.1,2.5,2.5v17.3C154.1,148.5,153,149.6,151.6,149.6z
					 M151.6,118.1h-3.8c-1.4,0-2.5-1.1-2.5-2.5V98.3c0-1.4,1.1-2.5,2.5-2.5h3.8c1.4,0,2.5,1.1,2.5,2.5v17.3
					C154.1,117,153,118.1,151.6,118.1z"/>
				<g>
					<defs>
						<path id="SVGID_3_" d="M112.9,82.7l0.1,74.4l48.9,0.1l12.1-62l3.9-2l1-10.5L112.9,82.7z"/>
					</defs>
					<clipPath id="SVGID_4_">
						<use xlink:href="#SVGID_3_"  style="overflow:visible;"/>
					</clipPath>
					<path class="st20" d="M47.9,90.9c0,1.4,1.1,2.5,2.5,2.5h0.3c1.4,0,2.7,1.1,3,2.5L64,154.2c0.2,1.4,1.6,2.5,3,2.5h91.8
						c1.4,0,2.7-1.1,3-2.5l10.3-58.3c0.2-1.4,1.6-2.5,3-2.5h0.3c1.4,0,2.5-1.1,2.5-2.5v-4.4c0-1.4-1.1-2.5-2.5-2.5H50.5
						c-1.4,0-2.5,1.1-2.5,2.5V90.9z M78,149.6h-3.7c-1.4,0-2.5-1.1-2.5-2.5v-17.3c0-1.4,1.1-2.5,2.5-2.5H78c1.4,0,2.5,1.1,2.5,2.5
						v17.3C80.5,148.5,79.4,149.6,78,149.6z M78,118.1h-3.7c-1.4,0-2.5-1.1-2.5-2.5V98.3c0-1.4,1.1-2.5,2.5-2.5H78
						c1.4,0,2.5,1.1,2.5,2.5v17.3C80.5,117,79.4,118.1,78,118.1z M95.4,149.6h-3.7c-1.4,0-2.5-1.1-2.5-2.5v-17.3
						c0-1.4,1.1-2.5,2.5-2.5h3.7c1.4,0,2.5,1.1,2.5,2.5v17.3C97.9,148.5,96.8,149.6,95.4,149.6z M95.4,118.1h-3.7
						c-1.4,0-2.5-1.1-2.5-2.5V98.3c0-1.4,1.1-2.5,2.5-2.5h3.7c1.4,0,2.5,1.1,2.5,2.5v17.3C97.9,117,96.8,118.1,95.4,118.1z
						 M114.8,149.6H111c-1.4,0-2.5-1.1-2.5-2.5v-17.3c0-1.4,1.1-2.5,2.5-2.5h3.8c1.4,0,2.5,1.1,2.5,2.5v17.3
						C117.3,148.5,116.2,149.6,114.8,149.6z M132.9,149.6h-3.7c-1.4,0-2.5-1.1-2.5-2.5v-17.3c0-1.4,1.1-2.5,2.5-2.5h3.7
						c1.4,0,2.5,1.1,2.5,2.5v17.3C135.4,148.5,134.3,149.6,132.9,149.6z M132.9,118.1h-3.7c-1.4,0-2.5-1.1-2.5-2.5V98.3
						c0-1.4,1.1-2.5,2.5-2.5h3.7c1.4,0,2.5,1.1,2.5,2.5v17.3C135.4,117,134.3,118.1,132.9,118.1z M151.6,149.6h-3.8
						c-1.4,0-2.5-1.1-2.5-2.5v-17.3c0-1.4,1.1-2.5,2.5-2.5h3.8c1.4,0,2.5,1.1,2.5,2.5v17.3C154.1,148.5,153,149.6,151.6,149.6z
						 M151.6,118.1h-3.8c-1.4,0-2.5-1.1-2.5-2.5V98.3c0-1.4,1.1-2.5,2.5-2.5h3.8c1.4,0,2.5,1.1,2.5,2.5v17.3
						C154.1,117,153,118.1,151.6,118.1z"/>
				</g>
			</g>
			<g>
				<g>
					<circle class="st21" cx="112.8" cy="92.7" r="3.9"/>
					<g>
						<path class="st22" d="M114.8,33.7h-4.3c-1.4,0-2.5,1.1-2.5,2.5v47.7h9.4V36.2C117.3,34.8,116.2,33.7,114.8,33.7z"/>
						<path class="st23" d="M114.8,33.7h-2v50.2h4.5V36.2C117.3,34.8,116.1,33.7,114.8,33.7z"/>
					</g>
				</g>
			</g>
		</g>
	</g>
	<g>
		<g>
			<g class="st24">
				<path class="st25" d="M249.8,157.6h-20.2v-46.2h-7.5v41.2c0,3.4-1.4,5-4.1,5h-23.3v-15.3h7.2v-30.9h-6.2V96.1h49.9
					c2.8,0,4.1,1.7,4.1,5V157.6z"/>
				<path class="st25" d="M300.7,150.3c0,1.9-0.6,3.6-1.8,5c-1.3,1.6-3,2.3-5,2.3h-23.8v-15h10.3v-31.2h-19.8
					c-1.1,0-2.1-0.4-2.9-1.3c-0.8-0.9-1.2-1.8-1.2-2.9V81.4h20.3v14.7h19.8c2.6,0,4,1.7,4,5V150.3z"/>
				<path class="st25" d="M350.4,152.6c0,3.4-1.4,5-4.2,5h-38.7v-15.3h22.7v-30.9h-22.7V96.1h38.7c2.8,0,4.2,1.7,4.2,5V152.6z"/>
				<path class="st25" d="M410.6,152.6c0,3.4-1.4,5-4.2,5h-23.3v-15.3h7.2v-30.8h-6l-7.3,46.1h-20.5l8.3-46.1h-7.2V96.1H406
					c3.1,0,4.7,1.8,4.7,5.5V152.6z"/>
			</g>
			<g>
				<g>
					<path class="st10" d="M248.8,156.6h-20.2v-46.2h-7.5v41.2c0,3.4-1.4,5-4.1,5h-23.3v-15.3h7.2v-30.9h-6.2V95.1h49.9
						c2.8,0,4.1,1.7,4.1,5V156.6z"/>
					<path class="st10" d="M299.7,149.3c0,1.9-0.6,3.6-1.8,5c-1.3,1.6-3,2.3-5,2.3h-23.8v-15h10.3v-31.2h-19.8
						c-1.1,0-2.1-0.4-2.9-1.3c-0.8-0.9-1.2-1.8-1.2-2.9V80.4h20.3v14.7h19.8c2.6,0,4,1.7,4,5V149.3z"/>
					<path class="st10" d="M349.4,151.6c0,3.4-1.4,5-4.2,5h-38.7v-15.3h22.7v-30.9h-22.7V95.1h38.7c2.8,0,4.2,1.7,4.2,5V151.6z"/>
					<path class="st10" d="M409.6,151.6c0,3.4-1.4,5-4.2,5h-23.3v-15.3h7.2v-30.8h-6l-7.3,46.1h-20.5l8.3-46.1h-7.2V95.1H405
						c3.1,0,4.7,1.8,4.7,5.5V151.6z"/>
				</g>
			</g>
		</g>
		<g>
			<g class="st24">
				<path class="st25" d="M399.1,172.7h-32.7c-1.1,0-2-0.9-2-2v-4c0-1.1,0.9-2,2-2h32.7c1.1,0,2,0.9,2,2v4
					C401.1,171.8,400.2,172.7,399.1,172.7z"/>
			</g>
			<g>
				<path class="st10" d="M398.1,171.7h-32.7c-1.1,0-2-0.9-2-2v-4c0-1.1,0.9-2,2-2h32.7c1.1,0,2,0.9,2,2v4
					C400.1,170.8,399.2,171.7,398.1,171.7z"/>
			</g>
		</g>
		<g>
			<g class="st24">
				<circle class="st25" cx="316.4" cy="126.7" r="4.6"/>
			</g>
			<g>
				<circle class="st10" cx="315.4" cy="125.7" r="4.6"/>
			</g>
		</g>
		<g>
			<g class="st24">
				<circle class="st25" cx="294.6" cy="85.5" r="4.6"/>
			</g>
			<g>
				<circle class="st10" cx="293.6" cy="84.5" r="4.6"/>
			</g>
		</g>
		<g>
			<g>
				<g class="st24">
					<circle class="st25" cx="276.7" cy="167.8" r="4.6"/>
				</g>
				<g>
					<circle class="st10" cx="275.7" cy="166.8" r="4.6"/>
				</g>
			</g>
			<g>
				<g class="st24">
					<circle class="st25" cx="289" cy="167.8" r="4.6"/>
				</g>
				<g>
					<circle class="st10" cx="288" cy="166.8" r="4.6"/>
				</g>
			</g>
			<g>
				<g class="st24">
					<circle class="st25" cx="282.8" cy="177.6" r="4.6"/>
				</g>
				<g>
					<circle class="st10" cx="281.8" cy="176.6" r="4.6"/>
				</g>
			</g>
		</g>
	</g>
</g>
</svg>
