<?xml version="1.0" encoding="UTF-8" standalone="no"?>
<svg width="1000px" height="1000px" viewBox="0 0 1000 1000" version="1.1" xmlns="http://www.w3.org/2000/svg" xmlns:xlink="http://www.w3.org/1999/xlink" xmlns:sketch="http://www.bohemiancoding.com/sketch/ns">
    <!-- Generator: Sketch 3.5.1 (25234) - http://www.bohemiancoding.com/sketch -->
    <title>icon-logo</title>
    <desc>Created with Sketch.</desc>
    <defs></defs>
    <g id="Page-1" stroke="none" stroke-width="1" fill="none" fill-rule="evenodd" sketch:type="MSPage">
        <g id="icon-logo" sketch:type="MSArtboardGroup" fill="#DD0C0C">
            <path d="M792.855647,350.434828 L714.852953,350.434828 L561.967672,350.434828 L561.967672,47.784375 L443.403578,47.784375 L443.403578,350.434828 L284.278082,350.434828 L206.275388,350.434828 L0.348275862,350.434828 L0.348275862,472.11903 L62.750431,472.11903 L125.152586,952.615625 L873.978448,952.615625 L936.380603,472.11903 L998.782759,472.11903 L998.782759,350.434828 L792.855647,350.434828 L792.855647,350.434828 Z M321.719375,874.612931 L196.915065,874.612931 L196.915065,703.007004 L321.719375,703.007004 L321.719375,874.612931 L321.719375,874.612931 Z M321.719375,634.364634 L196.915065,634.364634 L196.915065,472.11903 L321.719375,472.11903 L321.719375,634.364634 L321.719375,634.364634 Z M561.967672,874.612931 L437.163362,874.612931 L437.163362,703.007004 L561.967672,703.007004 L561.967672,874.612931 L561.967672,874.612931 Z M561.967672,634.364634 L437.163362,634.364634 L437.163362,472.11903 L561.967672,472.11903 L561.967672,634.364634 L561.967672,634.364634 Z M799.095862,874.612931 L674.291552,874.612931 L674.291552,703.007004 L799.095862,703.007004 L799.095862,874.612931 L799.095862,874.612931 Z M799.095862,634.364634 L674.291552,634.364634 L674.291552,472.11903 L799.095862,472.11903 L799.095862,634.364634 L799.095862,634.364634 Z" sketch:type="MSShapeGroup"></path>
        </g>
    </g>
</svg>